<svg width="110" height="110" viewBox="0 0 110 110" fill="none" xmlns="http://www.w3.org/2000/svg">
<path d="M0 0H110V110H0V0Z" fill="#F7DF1E"/>
<path d="M28.9231 91.924L37.3407 86.8296C38.9649 89.7089 40.4422 92.1452 43.9858 92.1452C47.3825 92.1452 49.5245 90.8167 49.5245 85.6484V50.5008H59.8615V85.7945C59.8615 96.501 53.5854 101.375 44.4288 101.375C36.1595 101.375 31.3594 97.0918 28.9227 91.9231L28.9231 91.924ZM65.4762 90.8162L73.8929 85.9431C76.1088 89.5615 78.9886 92.2196 84.083 92.2196C88.3665 92.2196 91.0976 90.078 91.0976 87.1243C91.0976 83.5803 88.2917 82.3247 83.566 80.2579L80.9823 79.1493C73.5242 75.9752 68.5772 71.9878 68.5772 63.5702C68.5772 55.8169 74.4842 49.9095 83.7143 49.9095C90.2859 49.9095 95.0116 52.1989 98.4079 58.1797L90.359 63.3489C88.5865 60.1739 86.6675 58.9188 83.7138 58.9188C80.6863 58.9188 78.7664 60.8386 78.7664 63.3489C78.7664 66.4499 80.6863 67.7059 85.1164 69.6258L87.7005 70.7331C96.4876 74.4993 101.435 78.3385 101.435 86.977C101.435 96.2814 94.1247 101.376 84.3042 101.376C74.7054 101.376 68.5029 96.7979 65.4758 90.8167" fill="black"/>
</svg>
