<svg width="43" height="37" viewBox="0 0 43 37" fill="none" xmlns="http://www.w3.org/2000/svg">
<path d="M34.0417 0H8.95833C4.01154 0 0 3.45179 0 7.70833V29.2917C0 33.5482 4.01154 37 8.95833 37H34.0417C38.9902 37 43 33.5482 43 29.2917V7.70833C43 3.45179 38.9902 0 34.0417 0ZM14.3333 29.2917H8.95833V12.3333H14.3333V29.2917ZM11.6458 10.3785C9.91508 10.3785 8.51042 9.16058 8.51042 7.659C8.51042 6.15742 9.91508 4.9395 11.6458 4.9395C13.3766 4.9395 14.7812 6.15742 14.7812 7.659C14.7812 9.16058 13.3784 10.3785 11.6458 10.3785ZM35.8333 29.2917H30.4583V20.6522C30.4583 15.4598 23.2917 15.853 23.2917 20.6522V29.2917H17.9167V12.3333H23.2917V15.0544C25.7928 11.0676 35.8333 10.7732 35.8333 18.8715V29.2917Z" fill="black"/>
</svg>
