<svg width="110" height="110" viewBox="0 0 110 110" fill="none" xmlns="http://www.w3.org/2000/svg">
<path d="M45.6328 54.5875H64.2537C69.4375 54.5875 73.5762 50.3215 73.5762 45.1137V27.3625C73.5762 22.3093 69.3137 18.5143 64.2537 17.6722C61.05 17.1393 57.7294 16.8953 54.5428 16.9125C51.3562 16.9297 48.3106 17.1978 45.6328 17.6722C37.7437 19.0643 36.3103 21.9828 36.3103 27.3625V34.4678H54.9519V36.8362H29.3116C23.8941 36.8362 19.1503 40.0915 17.6653 46.2893C15.9534 53.3912 15.8778 57.8222 17.6653 65.2368C18.9887 70.7575 22.1547 74.69 27.5722 74.69H33.9831V66.1718C33.9831 60.0187 39.3078 54.5909 45.6294 54.5909L45.6328 54.5875ZM44.4572 29.7309C42.5253 29.7309 40.9578 28.1462 40.9578 26.1903C40.9578 24.224 42.5219 22.6256 44.4572 22.6256C46.3822 22.6256 47.9566 24.224 47.9566 26.1903C47.9566 28.1497 46.3856 29.7309 44.4572 29.7309ZM92.2144 46.2859C90.8772 40.8925 88.3197 36.8328 82.8919 36.8328H75.8966V45.1103C75.8966 51.5281 70.455 56.9318 64.2503 56.9318H45.6294C40.5281 56.9318 36.3069 61.2975 36.3069 66.4056V84.1568C36.3069 89.21 40.7 92.18 45.6294 93.6306C51.5316 95.3665 57.1897 95.6793 64.2503 93.6306C68.9425 92.2728 73.5728 89.5365 73.5728 84.1568V77.0515H54.9519V74.6831H82.8953C88.3128 74.6831 90.3306 70.9053 92.2178 65.23C94.1634 59.3897 94.0809 53.7762 92.2178 46.2825L92.2144 46.2859ZM65.4259 81.7918C67.3578 81.7918 68.9253 83.3765 68.9253 85.3325C68.9253 87.2987 67.3578 88.8972 65.4259 88.8972C63.5009 88.8972 61.9266 87.2987 61.9266 85.3325C61.9266 83.3731 63.4975 81.7918 65.4259 81.7918Z" fill="#444444"/>
</svg>
