<svg width="103" height="99" viewBox="0 0 103 99" fill="none" xmlns="http://www.w3.org/2000/svg">
<path d="M51.5003 58.2586C56.5801 58.2586 60.698 54.3006 60.698 49.4182C60.698 44.5358 56.5801 40.5778 51.5003 40.5778C46.4206 40.5778 42.3027 44.5358 42.3027 49.4182C42.3027 54.3006 46.4206 58.2586 51.5003 58.2586Z" fill="#00D8FF"/>
<path fill-rule="evenodd" clip-rule="evenodd" d="M51.5006 31.4437C63.8496 31.4437 75.3216 33.1469 83.9714 36.0091C94.3932 39.4577 100.801 44.6849 100.801 49.4182C100.801 54.3506 94.01 59.9038 82.8183 63.4678C74.3572 66.1622 63.223 67.5688 51.5006 67.5688C39.4819 67.5688 28.1009 66.2486 19.5444 63.4382C8.71891 59.8817 2.19861 54.2566 2.19861 49.4182C2.19861 44.7233 8.31667 39.5364 18.592 36.0931C27.274 33.1837 39.0292 31.4437 51.4989 31.4437H51.5006Z" stroke="#00D8FF" stroke-width="2.73408"/>
<path fill-rule="evenodd" clip-rule="evenodd" d="M35.2211 40.4827C41.3905 30.2007 48.6562 21.4996 55.5571 15.7274C63.8716 8.77265 71.784 6.049 76.0498 8.41334C80.4954 10.8774 82.1077 19.3062 79.7289 30.4049C77.9321 38.7961 73.6358 48.7691 67.7795 58.5296C61.7751 68.5368 54.8999 77.3534 48.093 83.0721C39.4797 90.3091 31.1524 92.9281 26.7916 90.5109C22.5602 88.1672 20.942 80.4804 22.9719 70.2045C24.6871 61.5222 28.9914 50.8653 35.2191 40.4826L35.2211 40.4827Z" stroke="#00D8FF" stroke-width="2.73408"/>
<path fill-rule="evenodd" clip-rule="evenodd" d="M35.2365 58.5559C29.0497 48.2854 24.8374 37.8875 23.0792 29.2584C20.9627 18.8614 22.4591 10.9121 26.7211 8.54092C31.1623 6.06961 39.5649 8.93636 48.3809 16.4602C55.0464 22.1486 61.8908 30.7053 67.7641 40.4567C73.7857 50.4541 78.2988 60.5827 80.0545 69.1069C82.276 79.8938 80.478 88.1358 76.1213 90.5599C71.894 92.9121 64.1584 90.4217 55.9099 83.5992C48.9406 77.835 41.4843 68.9283 35.2365 58.5557V58.5559Z" stroke="#00D8FF" stroke-width="2.73408"/>
</svg>
